<svg width="2593" height="1700" viewBox="0 0 2593 1700" fill="none" xmlns="http://www.w3.org/2000/svg">
<path d="M1366.04 166.58C1381.78 132.246 1400.28 90.5181 1410.5 69.3715L1433 19.8838C1433 19.8838 1432.87 20.383 1443 52.3833C1447.4 64.5563 1462.29 105.976 1476.08 143.171C1489.86 180.366 1505 221.333 1509.71 234.208C1514.45 247.083 1527.37 282.197 1538.46 312.239C1549.56 342.282 1563.77 380.621 1570.04 397.424C1576.31 414.227 1586.58 441.746 1592.85 458.549C1599.14 475.352 1614.2 516.032 1626.35 548.935C1638.5 581.838 1671.54 671.367 1699.76 747.916C1727.99 824.465 1754.36 896.436 1758.37 907.881C1762.4 919.326 1773.38 949.472 1782.82 974.858C1792.24 1000.24 1799.94 1021.63 1799.94 1022.33C1799.94 1023.03 1752.83 1023.65 1590.53 1023.78L1566.19 960.631C1552.82 925.906 1535.26 880.206 1512.5 820.72H1298.54C1180.85 820.746 1070.45 821.438 1066.5 820.372C1066.58 819.305 1083.5 782.372 1143 644.372L1310.48 641.923C1403.97 641.507 1453.97 640.362 1453.97 638.672C1453.97 637.241 1449.93 625.822 1445.02 613.311C1440.13 600.8 1416.82 541.393 1393.28 481.308C1369.73 421.224 1342.76 352.166 1333.32 327.846C1323.87 303.526 1314 283.383 1314 280.886C1314 279.386 1320.62 264.216 1327 250.386C1333 237.386 1350.3 200.914 1366.04 166.58Z" fill="#687070"></path>
<path d="M1159.47 108.042C1162.26 101.617 1172.82 79.0661 1182.91 57.9716L1201.3 19.606H1305.02C1362.07 19.606 1408.76 19.8921 1408.79 20.2562C1408.81 20.6204 1393.46 53.6798 1374.68 93.7361C1355.88 133.792 1330.82 187.634 1319.01 213.385C1307.18 239.135 1279.97 297.659 1258.51 343.438C1237.07 389.216 1203.41 461.786 1183.69 504.703C1164 547.621 1127.43 627.213 1102.45 681.575C1077.46 735.937 1037.92 821.382 1014.56 871.453C991.195 921.523 965.475 976.506 943 1023.87V1023.81V1023.74V1023.61C885.042 1023.61 731.526 1024.74 731.5 1024.37C731.474 1024.01 742.951 999.503 755.984 971.593C769.016 943.684 821.615 830.174 872.835 719.291C924.081 608.434 994.655 456.844 1029.69 382.454C1064.76 308.063 1107.14 218.509 1123.91 183.473C1140.69 148.436 1156.69 114.467 1159.47 108.042Z" fill="#213859"></path>
<path d="M2138.38 0.0148461C2160.19 -0.141247 2189.44 0.951192 2203.37 2.46016C2217.31 3.94311 2238.08 6.88308 2249.51 8.99043C2260.95 11.0978 2279.1 15.2084 2289.81 18.1223C2300.55 21.0361 2321 27.5924 2335.3 32.6916C2349.6 37.8169 2372.43 47.5216 2386 54.26C2399.57 61.0243 2420.65 72.7317 2432.79 80.2766C2444.93 87.8214 2463.96 100.882 2495.18 124.61L2485.43 136.109C2480.08 142.405 2454.73 171.986 2429.1 201.801C2403.49 231.59 2381.26 257.581 2379.71 259.532C2377.42 262.394 2374.22 261.145 2362.6 252.872C2354.72 247.253 2341.28 238.432 2332.7 233.255C2324.12 228.104 2307.75 219.232 2296.31 213.561C2284.87 207.915 2264.98 199.719 2252.11 195.401C2239.25 191.056 2218.19 185.411 2205.32 182.835C2188.29 179.401 2169.89 178.125 2137.73 178.125C2102.56 178.099 2087.71 179.271 2064.94 183.823C2049.21 186.971 2028.16 192.331 2018.15 195.739C2008.14 199.174 1991.76 205.704 1981.75 210.282C1971.74 214.835 1953.6 225.19 1941.46 233.255C1929.32 241.32 1908.78 258.517 1895.83 271.474C1882.89 284.43 1865.7 304.957 1857.65 317.133C1849.59 329.283 1838.93 348.015 1833.94 358.76C1828.97 369.479 1821.95 387.04 1818.37 397.785C1814.75 408.504 1809.32 429.604 1806.25 444.615C1803.18 459.627 1800.01 486.554 1799.21 504.453C1798.3 524.044 1799 547.329 1800.92 562.991C1802.69 577.301 1806.41 598.946 1809.21 611.122C1812.02 623.272 1819.01 644.944 1824.76 659.253C1830.5 673.562 1840.54 694.037 1847.06 704.782C1853.56 715.501 1864.9 731.814 1872.23 740.998C1879.56 750.182 1893.16 764.621 1902.46 773.103C1911.77 781.584 1926.38 793.162 1934.96 798.833C1943.54 804.505 1963.42 815.484 1979.15 823.211C1994.88 830.938 2018.28 840.277 2031.14 843.972C2044.01 847.666 2065.07 852.376 2077.94 854.431C2090.81 856.512 2115.97 858.932 2133.83 859.79C2151.72 860.675 2179.77 860.181 2196.22 858.724C2212.68 857.241 2238.39 853.546 2253.41 850.502C2268.44 847.458 2291.24 841.448 2304.11 837.155C2316.98 832.863 2338.63 824.069 2352.2 817.591C2365.77 811.113 2380.12 803.594 2391.2 795.841L2389.9 638.44L2229.57 637.139L2230.87 464.128L2591.37 462.827L2591.32 898.608L2555.62 922.023C2536 934.901 2500.04 955.402 2475.71 967.604C2451.4 979.806 2419.22 994.245 2404.19 999.735C2389.17 1005.2 2362.29 1013.71 2344.4 1018.6C2326.54 1023.51 2299.04 1029.84 2283.31 1032.62C2267.58 1035.4 2241.85 1038.89 2226.12 1040.35C2210.39 1041.8 2178.23 1043 2154.63 1043C2131.02 1043 2097.12 1041.28 2079.24 1039.18C2061.38 1037.09 2035.62 1033.09 2022.05 1030.3C2008.48 1027.49 1986.22 1022.03 1972.65 1018.15C1959.08 1014.25 1937.43 1007.07 1924.56 1002.18C1911.69 997.289 1889.46 987.558 1875.17 980.56C1860.87 973.587 1835.13 958.55 1817.97 947.206C1817.37 946.804 1816.78 946.418 1816.22 946.046C1809.65 941.708 1806.1 939.364 1802.84 936.668C1799.06 933.539 1795.67 929.935 1788.4 922.193L1611.49 437.28C1615 421.193 1620.27 401.664 1622.79 391.28C1626.3 376.971 1632.88 354.727 1637.43 341.849C1641.98 328.971 1652.45 304.957 1660.72 288.515C1668.99 272.046 1682.69 248.059 1691.14 235.181C1699.61 222.303 1715.37 201.228 1726.13 188.35C1736.87 175.472 1755.51 155.543 1767.54 144.096C1779.55 132.623 1796.4 117.897 1804.98 111.341C1813.56 104.811 1829.33 93.6229 1840.07 86.4943C1850.78 79.3658 1867.16 69.3501 1876.47 64.2248C1885.77 59.0735 1905.63 49.6549 1920.66 43.2287C1935.69 36.8287 1959.65 28.0615 1973.95 23.7688C1988.25 19.476 2009.91 13.9344 2022.05 11.4367C2034.19 8.96513 2056.41 5.42684 2071.44 3.60567C2086.47 1.7845 2116.57 0.170946 2138.38 0.0148461Z" fill="#687070"></path>
<path d="M5 1020.87V17.8716H199.029V389.449H708.678V17.8716H904V598.637L842.5 730.637C819.061 780.657 773.018 883.933 708.678 1020.87V584.333H199.029V1020.87H5Z" fill="#213859"></path>
<path d="M86.3813 1293.29C86.029 1291.87 116.815 1261.3 154.782 1225.35L223.833 1160L298.412 1231.15L256.434 1270.98L242.206 1258.17C234.374 1251.13 226.759 1245.38 225.269 1245.38C223.778 1245.38 201.177 1265.47 127.492 1334.68L107.248 1315.27C96.1102 1304.6 86.7336 1294.69 86.3813 1293.29Z" fill="#213859"></path>
<path d="M5 1368.32L28.3602 1346.97C41.1785 1335.22 52.6418 1325.62 53.8071 1325.62C54.9453 1325.62 98.8744 1366.67 246.895 1508.09L215.784 1537.88L149.389 1474.44L129.064 1493.85L213.074 1574.08L368.899 1425.26L413.614 1467.97L204.944 1667.26L8.523 1479.62L5 1368.32Z" fill="#213859"></path>
<path fill-rule="evenodd" clip-rule="evenodd" d="M377.911 1190.92L579.833 1383.74L579.86 1487.27L528.316 1536.44L472.598 1483.38C441.948 1454.19 398.344 1411.9 334.578 1348.46L365.743 1319.03L434.848 1384.83L451.677 1365.62L412.084 1326.1C390.322 1304.36 371.298 1286.55 369.808 1286.53C368.317 1286.5 332.952 1319.81 215.338 1434.57L169.268 1390.21L377.911 1190.92ZM453.791 1524.77C455.281 1524.77 466.284 1534.06 499.888 1566.15L360.404 1699.5L284.47 1627.03L329.158 1584.32L358.968 1612.74L405.011 1568.77C430.322 1544.57 452.273 1524.77 453.791 1524.77Z" fill="#687070"></path>
<path d="M978.487 1317.33C976.83 1301.82 969.846 1289.75 957.536 1281.11C945.343 1272.47 929.482 1268.14 909.95 1268.14C896.219 1268.14 884.441 1270.22 874.616 1274.36C864.792 1278.5 857.275 1284.12 852.067 1291.23C846.858 1298.33 844.195 1306.44 844.077 1315.55C844.077 1323.13 845.793 1329.7 849.226 1335.26C852.777 1340.82 857.571 1345.56 863.608 1349.47C869.645 1353.25 876.333 1356.45 883.672 1359.05C891.011 1361.66 898.409 1363.85 905.866 1365.62L939.957 1374.15C953.688 1377.34 966.887 1381.66 979.553 1387.11C992.337 1392.55 1003.76 1399.42 1013.82 1407.7C1024 1415.99 1032.05 1425.99 1037.97 1437.71C1043.89 1449.43 1046.85 1463.16 1046.85 1478.9C1046.85 1500.21 1041.4 1518.97 1030.51 1535.19C1019.62 1551.29 1003.88 1563.9 983.281 1573.01C962.803 1582.01 938.004 1586.5 908.885 1586.5C880.594 1586.5 856.032 1582.12 835.199 1573.37C814.484 1564.61 798.267 1551.82 786.548 1535.01C774.948 1518.2 768.674 1497.73 767.727 1473.58H832.536C833.482 1486.24 837.389 1496.78 844.254 1505.18C851.12 1513.59 860.057 1519.86 871.065 1524C882.192 1528.15 894.621 1530.22 908.352 1530.22C922.675 1530.22 935.223 1528.09 945.994 1523.83C956.884 1519.45 965.407 1513.41 971.562 1505.72C977.718 1497.9 980.855 1488.79 980.973 1478.37C980.855 1468.9 978.073 1461.09 972.628 1454.93C967.183 1448.66 959.548 1443.45 949.723 1439.31C940.017 1435.05 928.653 1431.26 915.632 1427.95L874.261 1417.29C844.313 1409.6 820.639 1397.94 803.239 1382.31C785.956 1366.57 777.315 1345.68 777.315 1319.64C777.315 1298.21 783.116 1279.45 794.716 1263.35C806.435 1247.25 822.356 1234.76 842.479 1225.89C862.602 1216.89 885.388 1212.39 910.838 1212.39C936.643 1212.39 959.252 1216.89 978.665 1225.89C998.196 1234.76 1013.53 1247.13 1024.65 1263C1035.78 1278.74 1041.52 1296.85 1041.88 1317.33H978.487ZM1311.56 1466.3V1308.27H1375.84V1581H1313.51V1532.53H1310.67C1304.52 1547.8 1294.4 1560.29 1280.31 1569.99C1266.34 1579.7 1249.12 1584.55 1228.64 1584.55C1210.77 1584.55 1194.97 1580.59 1181.23 1572.65C1167.62 1564.61 1156.97 1552.95 1149.27 1537.68C1141.58 1522.29 1137.73 1503.7 1137.73 1481.92V1308.27H1202.01V1471.98C1202.01 1489.26 1206.74 1502.99 1216.21 1513.17C1225.68 1523.35 1238.11 1528.44 1253.5 1528.44C1262.97 1528.44 1272.14 1526.13 1281.02 1521.52C1289.9 1516.9 1297.18 1510.04 1302.86 1500.92C1308.66 1491.69 1311.56 1480.15 1311.56 1466.3ZM1476.93 1683.27V1308.27H1540.14V1353.37H1543.87C1547.19 1346.74 1551.86 1339.7 1557.9 1332.24C1563.93 1324.67 1572.1 1318.22 1582.4 1312.89C1592.7 1307.44 1605.84 1304.72 1621.82 1304.72C1642.89 1304.72 1661.89 1310.11 1678.81 1320.88C1695.86 1331.53 1709.35 1347.34 1719.3 1368.29C1729.36 1389.12 1734.39 1414.69 1734.39 1444.99C1734.39 1474.94 1729.48 1500.39 1719.65 1521.34C1709.83 1542.29 1696.45 1558.27 1679.52 1569.28C1662.6 1580.29 1643.42 1585.79 1622 1585.79C1606.37 1585.79 1593.41 1583.19 1583.11 1577.98C1572.81 1572.77 1564.53 1566.5 1558.25 1559.16C1552.1 1551.7 1547.3 1544.66 1543.87 1538.03H1541.21V1683.27H1476.93ZM1539.96 1444.64C1539.96 1462.27 1542.45 1477.72 1547.42 1490.98C1552.51 1504.24 1559.79 1514.59 1569.26 1522.05C1578.85 1529.39 1590.45 1533.06 1604.06 1533.06C1618.27 1533.06 1630.16 1529.27 1639.75 1521.7C1649.34 1514 1656.56 1503.53 1661.41 1490.27C1666.38 1476.89 1668.87 1461.68 1668.87 1444.64C1668.87 1427.71 1666.44 1412.68 1661.59 1399.54C1656.74 1386.4 1649.52 1376.1 1639.93 1368.64C1630.34 1361.18 1618.39 1357.46 1604.06 1357.46C1590.33 1357.46 1578.67 1361.07 1569.08 1368.29C1559.5 1375.51 1552.22 1385.63 1547.24 1398.65C1542.39 1411.67 1539.96 1427 1539.96 1444.64ZM1824.43 1683.27V1308.27H1887.64V1353.37H1891.37C1894.69 1346.74 1899.36 1339.7 1905.4 1332.24C1911.43 1324.67 1919.6 1318.22 1929.9 1312.89C1940.2 1307.44 1953.34 1304.72 1969.32 1304.72C1990.39 1304.72 2009.39 1310.11 2026.31 1320.88C2043.36 1331.53 2056.85 1347.34 2066.8 1368.29C2076.86 1389.12 2081.89 1414.69 2081.89 1444.99C2081.89 1474.94 2076.98 1500.39 2067.15 1521.34C2057.33 1542.29 2043.95 1558.27 2027.02 1569.28C2010.1 1580.29 1990.92 1585.79 1969.5 1585.79C1953.87 1585.79 1940.91 1583.19 1930.61 1577.98C1920.31 1572.77 1912.03 1566.5 1905.75 1559.16C1899.6 1551.7 1894.8 1544.66 1891.37 1538.03H1888.71V1683.27H1824.43ZM1887.46 1444.64C1887.46 1462.27 1889.95 1477.72 1894.92 1490.98C1900.01 1504.24 1907.29 1514.59 1916.76 1522.05C1926.35 1529.39 1937.95 1533.06 1951.56 1533.06C1965.77 1533.06 1977.66 1529.27 1987.25 1521.7C1996.84 1514 2004.06 1503.53 2008.91 1490.27C2013.88 1476.89 2016.37 1461.68 2016.37 1444.64C2016.37 1427.71 2013.94 1412.68 2009.09 1399.54C2004.24 1386.4 1997.02 1376.1 1987.43 1368.64C1977.84 1361.18 1965.89 1357.46 1951.56 1357.46C1937.83 1357.46 1926.17 1361.07 1916.58 1368.29C1907 1375.51 1899.72 1385.63 1894.74 1398.65C1889.89 1411.67 1887.46 1427 1887.46 1444.64ZM2236.21 1217.36V1581H2171.93V1217.36H2236.21ZM2377.25 1683.27C2368.49 1683.27 2360.39 1682.56 2352.93 1681.14C2345.59 1679.84 2339.73 1678.3 2335.35 1676.53L2350.26 1626.45C2359.62 1629.18 2367.96 1630.48 2375.3 1630.36C2382.64 1630.24 2389.09 1627.93 2394.65 1623.44C2400.34 1619.06 2405.13 1611.72 2409.04 1601.42L2414.54 1586.68L2315.64 1308.27H2383.82L2446.68 1514.24H2449.52L2512.55 1308.27H2580.91L2471.71 1614.03C2466.62 1628.47 2459.88 1640.84 2451.47 1651.13C2443.07 1661.55 2432.77 1669.48 2420.58 1674.93C2408.5 1680.49 2394.06 1683.27 2377.25 1683.27Z" fill="#213859"></path>
</svg>