<svg width="2597" height="1712" viewBox="0 0 2597 1712" fill="none" xmlns="http://www.w3.org/2000/svg">
<rect x="1.17139" y="0.5" width="2591.33" height="1675.04" stroke="black"></rect>
<g filter="url(#filter0_d_55_42)">
<path d="M1366.71 166.58C1382.45 132.246 1400.95 90.5181 1411.17 69.3715L1433.67 19.8838C1433.67 19.8838 1433.54 20.383 1443.67 52.3833C1448.07 64.5563 1462.96 105.976 1476.75 143.171C1490.54 180.366 1505.67 221.333 1510.38 234.208C1515.12 247.083 1528.05 282.197 1539.13 312.239C1550.24 342.282 1564.44 380.621 1570.71 397.424C1576.98 414.227 1587.25 441.746 1593.52 458.549C1599.81 475.352 1614.88 516.032 1627.02 548.935C1639.17 581.838 1672.21 671.367 1700.43 747.916C1728.66 824.465 1755.04 896.436 1759.04 907.881C1763.07 919.326 1774.05 949.472 1783.49 974.858C1792.91 1000.24 1800.61 1021.63 1800.61 1022.33C1800.61 1023.03 1753.5 1023.65 1591.2 1023.78L1566.86 960.631C1553.49 925.906 1535.93 880.206 1513.17 820.72H1299.21C1181.52 820.746 1071.12 821.438 1067.17 820.372C1067.25 819.305 1084.17 782.372 1143.67 644.372L1311.15 641.923C1404.64 641.507 1454.64 640.362 1454.64 638.672C1454.64 637.241 1450.6 625.822 1445.69 613.311C1440.8 600.8 1417.49 541.393 1393.95 481.308C1370.41 421.224 1343.43 352.166 1333.99 327.846C1324.54 303.526 1314.67 283.383 1314.67 280.886C1314.67 279.386 1321.29 264.216 1327.67 250.386C1333.67 237.386 1350.97 200.914 1366.71 166.58Z" fill="black"></path>
<path d="M1366.71 166.58C1382.45 132.246 1400.95 90.5181 1411.17 69.3715L1433.67 19.8838C1433.67 19.8838 1433.54 20.383 1443.67 52.3833C1448.07 64.5563 1462.96 105.976 1476.75 143.171C1490.54 180.366 1505.67 221.333 1510.38 234.208C1515.12 247.083 1528.05 282.197 1539.13 312.239C1550.24 342.282 1564.44 380.621 1570.71 397.424C1576.98 414.227 1587.25 441.746 1593.52 458.549C1599.81 475.352 1614.88 516.032 1627.02 548.935C1639.17 581.838 1672.21 671.367 1700.43 747.916C1728.66 824.465 1755.04 896.436 1759.04 907.881C1763.07 919.326 1774.05 949.472 1783.49 974.858C1792.91 1000.24 1800.61 1021.63 1800.61 1022.33C1800.61 1023.03 1753.5 1023.65 1591.2 1023.78L1566.86 960.631C1553.49 925.906 1535.93 880.206 1513.17 820.72H1299.21C1181.52 820.746 1071.12 821.438 1067.17 820.372C1067.25 819.305 1084.17 782.372 1143.67 644.372L1311.15 641.923C1404.64 641.507 1454.64 640.362 1454.64 638.672C1454.64 637.241 1450.6 625.822 1445.69 613.311C1440.8 600.8 1417.49 541.393 1393.95 481.308C1370.41 421.224 1343.43 352.166 1333.99 327.846C1324.54 303.526 1314.67 283.383 1314.67 280.886C1314.67 279.386 1321.29 264.216 1327.67 250.386C1333.67 237.386 1350.97 200.914 1366.71 166.58Z" stroke="black" stroke-width="2.60132"></path>
</g>
<g filter="url(#filter1_d_55_42)">
<path d="M1160.15 108.042C1162.93 101.617 1173.49 79.0661 1183.58 57.9716L1201.98 19.606H1305.69C1362.74 19.606 1409.43 19.8921 1409.46 20.2562C1409.48 20.6204 1394.14 53.6798 1375.35 93.7361C1356.55 133.792 1331.5 187.634 1319.69 213.385C1307.85 239.135 1280.64 297.659 1259.18 343.438C1237.74 389.216 1204.08 461.786 1184.36 504.703C1164.67 547.621 1128.1 627.213 1103.13 681.575C1078.13 735.937 1038.59 821.382 1015.23 871.453C991.867 921.523 966.147 976.506 943.671 1023.87V1023.81V1023.74V1023.61C885.714 1023.61 732.197 1024.74 732.171 1024.37C732.145 1024.01 743.623 999.503 756.655 971.593C769.688 943.684 822.287 830.174 873.507 719.291C924.753 608.434 995.326 456.844 1030.37 382.454C1065.43 308.063 1107.81 218.509 1124.59 183.473C1141.36 148.436 1157.36 114.467 1160.15 108.042Z" fill="black"></path>
<path d="M1160.15 108.042C1162.93 101.617 1173.49 79.0661 1183.58 57.9716L1201.98 19.606H1305.69C1362.74 19.606 1409.43 19.8921 1409.46 20.2562C1409.48 20.6204 1394.14 53.6798 1375.35 93.7361C1356.55 133.792 1331.5 187.634 1319.69 213.385C1307.85 239.135 1280.64 297.659 1259.18 343.438C1237.74 389.216 1204.08 461.786 1184.36 504.703C1164.67 547.621 1128.1 627.213 1103.13 681.575C1078.13 735.937 1038.59 821.382 1015.23 871.453C991.867 921.523 966.147 976.506 943.671 1023.87V1023.81V1023.74V1023.61C885.714 1023.61 732.197 1024.74 732.171 1024.37C732.145 1024.01 743.623 999.503 756.655 971.593C769.688 943.684 822.287 830.174 873.507 719.291C924.753 608.434 995.326 456.844 1030.37 382.454C1065.43 308.063 1107.81 218.509 1124.59 183.473C1141.36 148.436 1157.36 114.467 1160.15 108.042Z" stroke="black" stroke-width="2.60132"></path>
</g>
<g filter="url(#filter2_d_55_42)">
<path d="M2139.05 0.0148461C2160.86 -0.141247 2190.11 0.951192 2204.04 2.46016C2217.98 3.94311 2238.75 6.88308 2250.19 8.99043C2261.62 11.0978 2279.77 15.2084 2290.48 18.1223C2301.22 21.0361 2321.68 27.5924 2335.97 32.6916C2350.27 37.8169 2373.1 47.5216 2386.67 54.26C2400.24 61.0243 2421.32 72.7317 2433.46 80.2766C2445.6 87.8214 2464.63 100.882 2495.85 124.61L2486.1 136.109C2480.75 142.405 2455.4 171.986 2429.77 201.801C2404.16 231.59 2381.94 257.581 2380.38 259.532C2378.09 262.394 2374.89 261.145 2363.27 252.872C2355.39 247.253 2341.95 238.432 2333.37 233.255C2324.8 228.104 2308.42 219.232 2296.98 213.561C2285.54 207.915 2265.65 199.719 2252.79 195.401C2239.92 191.056 2218.86 185.411 2205.99 182.835C2188.96 179.401 2170.56 178.125 2138.4 178.125C2103.23 178.099 2088.38 179.271 2065.61 183.823C2049.88 186.971 2028.83 192.331 2018.82 195.739C2008.81 199.174 1992.43 205.704 1982.42 210.282C1972.41 214.835 1954.27 225.19 1942.13 233.255C1929.99 241.32 1909.45 258.517 1896.5 271.474C1883.56 284.43 1866.38 304.957 1858.32 317.133C1850.26 329.283 1839.6 348.015 1834.61 358.76C1829.64 369.479 1822.62 387.04 1819.04 397.785C1815.42 408.504 1809.99 429.604 1806.92 444.615C1803.85 459.627 1800.68 486.554 1799.88 504.453C1798.97 524.044 1799.67 547.329 1801.59 562.991C1803.36 577.301 1807.08 598.946 1809.89 611.122C1812.69 623.272 1819.69 644.944 1825.43 659.253C1831.18 673.562 1841.21 694.037 1847.74 704.782C1854.23 715.501 1865.57 731.814 1872.9 740.998C1880.23 750.182 1893.83 764.621 1903.13 773.103C1912.44 781.584 1927.05 793.162 1935.63 798.833C1944.21 804.505 1964.1 815.484 1979.82 823.211C1995.55 830.938 2018.95 840.277 2031.82 843.972C2044.68 847.666 2065.74 852.376 2078.61 854.431C2091.48 856.512 2116.64 858.932 2134.5 859.79C2152.39 860.675 2180.44 860.181 2196.89 858.724C2213.35 857.241 2239.06 853.546 2254.09 850.502C2269.11 847.458 2291.91 841.448 2304.78 837.155C2317.65 832.863 2339.3 824.069 2352.87 817.591C2366.44 811.113 2380.79 803.594 2391.87 795.841L2390.57 638.44L2230.24 637.139L2231.54 464.128L2592.04 462.827L2591.99 898.608L2556.29 922.023C2536.67 934.901 2500.71 955.402 2476.38 967.604C2452.07 979.806 2419.89 994.245 2404.86 999.735C2389.84 1005.2 2362.96 1013.71 2345.07 1018.6C2327.21 1023.51 2299.71 1029.84 2283.98 1032.62C2268.25 1035.4 2242.52 1038.89 2226.79 1040.35C2211.06 1041.8 2178.9 1043 2155.3 1043C2131.69 1043 2097.8 1041.28 2079.91 1039.18C2062.05 1037.09 2036.29 1033.09 2022.72 1030.3C2009.15 1027.49 1986.89 1022.03 1973.32 1018.15C1959.75 1014.25 1938.1 1007.07 1925.23 1002.18C1912.36 997.289 1890.14 987.558 1875.84 980.56C1861.54 973.587 1835.8 958.55 1818.65 947.206C1818.04 946.804 1817.45 946.418 1816.89 946.046C1810.32 941.708 1806.77 939.364 1803.51 936.668C1799.73 933.539 1796.34 929.935 1789.07 922.193L1612.16 437.28C1615.67 421.193 1620.94 401.664 1623.46 391.28C1626.97 376.971 1633.55 354.727 1638.1 341.849C1642.65 328.971 1653.13 304.957 1661.39 288.515C1669.66 272.046 1683.36 248.059 1691.81 235.181C1700.28 222.303 1716.04 201.228 1726.8 188.35C1737.54 175.472 1756.18 155.543 1768.21 144.096C1780.22 132.623 1797.07 117.897 1805.65 111.341C1814.23 104.811 1830.01 93.6229 1840.74 86.4943C1851.45 79.3658 1867.83 69.3501 1877.14 64.2248C1886.44 59.0735 1906.31 49.6549 1921.33 43.2287C1936.36 36.8287 1960.33 28.0615 1974.62 23.7688C1988.92 19.476 2010.58 13.9344 2022.72 11.4367C2034.86 8.96513 2057.08 5.42684 2072.11 3.60567C2087.14 1.7845 2117.24 0.170946 2139.05 0.0148461Z" fill="black"></path>
</g>
<g filter="url(#filter3_d_55_42)">
<path d="M5.67139 1020.87V17.8716H199.7V389.449H709.349V17.8716H904.671V598.637L843.171 730.637C819.733 780.657 773.689 883.933 709.349 1020.87V584.333H199.7V1020.87H5.67139Z" fill="black"></path>
<path d="M5.67139 1020.87V17.8716H199.7V389.449H709.349V17.8716H904.671V598.637L843.171 730.637C819.733 780.657 773.689 883.933 709.349 1020.87V584.333H199.7V1020.87H5.67139Z" stroke="black" stroke-width="2.60132"></path>
</g>
<g filter="url(#filter4_d_55_42)">
<path d="M87.0527 1293.82C86.7004 1292.39 117.486 1261.7 155.453 1225.61L224.504 1160L299.083 1231.43L257.105 1271.42L242.878 1258.56C235.046 1251.49 227.431 1245.72 225.94 1245.72C224.45 1245.72 201.848 1265.88 128.163 1335.37L107.92 1315.88C96.7816 1305.17 87.405 1295.22 87.0527 1293.82Z" fill="black"></path>
<path d="M5.67139 1369.14L29.0316 1347.71C41.8499 1335.91 53.3132 1326.27 54.4785 1326.27C55.6167 1326.27 99.5458 1367.48 247.566 1509.46L216.455 1539.37L150.06 1475.68L129.735 1495.17L213.745 1575.72L369.57 1426.31L414.285 1469.18L205.615 1669.26L9.19439 1480.88L5.67139 1369.14Z" fill="black"></path>
<path d="M87.0527 1293.82C86.7004 1292.39 117.486 1261.7 155.453 1225.61L224.504 1160L299.083 1231.43L257.105 1271.42L242.878 1258.56C235.046 1251.49 227.431 1245.72 225.94 1245.72C224.45 1245.72 201.848 1265.88 128.163 1335.37L107.92 1315.88C96.7816 1305.17 87.405 1295.22 87.0527 1293.82Z" stroke="black" stroke-width="3.29667"></path>
<path d="M5.67139 1369.14L29.0316 1347.71C41.8499 1335.91 53.3132 1326.27 54.4785 1326.27C55.6167 1326.27 99.5458 1367.48 247.566 1509.46L216.455 1539.37L150.06 1475.68L129.735 1495.17L213.745 1575.72L369.57 1426.31L414.285 1469.18L205.615 1669.26L9.19439 1480.88L5.67139 1369.14Z" stroke="black" stroke-width="3.29667"></path>
</g>
<g filter="url(#filter5_d_55_42)">
<path fill-rule="evenodd" clip-rule="evenodd" d="M378.582 1190.92L580.504 1384.5L580.531 1488.43L528.987 1537.8L473.27 1484.53C442.619 1455.22 399.015 1412.77 335.249 1349.08L366.414 1319.54L435.519 1385.59L452.348 1366.31L412.755 1326.63C390.994 1304.81 371.97 1286.93 370.479 1286.9C368.989 1286.88 333.623 1320.32 216.009 1435.53L169.939 1390.99L378.582 1190.92ZM454.462 1526.08C455.953 1526.08 466.955 1535.41 500.559 1567.63L361.076 1701.5L285.141 1628.74L329.829 1585.87L359.639 1614.4L405.682 1570.25C430.993 1545.96 452.944 1526.08 454.462 1526.08Z" fill="black"></path>
<path fill-rule="evenodd" clip-rule="evenodd" d="M378.582 1190.92L580.504 1384.5L580.531 1488.43L528.987 1537.8L473.27 1484.53C442.619 1455.22 399.015 1412.77 335.249 1349.08L366.414 1319.54L435.519 1385.59L452.348 1366.31L412.755 1326.63C390.994 1304.81 371.97 1286.93 370.479 1286.9C368.989 1286.88 333.623 1320.32 216.009 1435.53L169.939 1390.99L378.582 1190.92ZM454.462 1526.08C455.953 1526.08 466.955 1535.41 500.559 1567.63L361.076 1701.5L285.141 1628.74L329.829 1585.87L359.639 1614.4L405.682 1570.25C430.993 1545.96 452.944 1526.08 454.462 1526.08Z" stroke="black" stroke-width="3.29667"></path>
</g>
<path d="M966.159 1326.33C964.501 1310.82 957.518 1298.75 945.207 1290.11C933.015 1281.47 917.153 1277.14 897.622 1277.14C883.891 1277.14 872.113 1279.22 862.288 1283.36C852.463 1287.5 844.946 1293.12 839.738 1300.23C834.53 1307.33 831.866 1315.44 831.748 1324.55C831.748 1332.13 833.464 1338.7 836.897 1344.26C840.448 1349.82 845.242 1354.56 851.279 1358.47C857.316 1362.25 864.004 1365.45 871.343 1368.05C878.682 1370.66 886.08 1372.85 893.538 1374.62L927.629 1383.15C941.36 1386.34 954.558 1390.66 967.224 1396.11C980.008 1401.55 991.431 1408.42 1001.49 1416.7C1011.67 1424.99 1019.72 1434.99 1025.64 1446.71C1031.56 1458.43 1034.52 1472.16 1034.52 1487.9C1034.52 1509.21 1029.07 1527.97 1018.18 1544.19C1007.29 1560.29 991.549 1572.9 970.953 1582.01C950.474 1591.01 925.676 1595.5 896.556 1595.5C868.266 1595.5 843.704 1591.12 822.87 1582.37C802.155 1573.61 785.938 1560.82 774.22 1544.01C762.619 1527.2 756.346 1506.73 755.399 1482.58H820.207C821.154 1495.24 825.06 1505.78 831.926 1514.18C838.791 1522.59 847.728 1528.86 858.737 1533C869.864 1537.15 882.293 1539.22 896.024 1539.22C910.347 1539.22 922.894 1537.09 933.666 1532.83C944.556 1528.45 953.079 1522.41 959.234 1514.72C965.389 1506.9 968.526 1497.79 968.644 1487.37C968.526 1477.9 965.744 1470.09 960.299 1463.93C954.854 1457.66 947.219 1452.45 937.394 1448.31C927.688 1444.05 916.324 1440.26 903.303 1436.95L861.933 1426.29C831.985 1418.6 808.311 1406.94 790.91 1391.31C773.628 1375.57 764.987 1354.68 764.987 1328.64C764.987 1307.21 770.787 1288.45 782.387 1272.35C794.106 1256.25 810.027 1243.76 830.15 1234.89C850.273 1225.89 873.06 1221.39 898.509 1221.39C924.314 1221.39 946.923 1225.89 966.336 1234.89C985.867 1243.76 1001.2 1256.13 1012.32 1272C1023.45 1287.74 1029.19 1305.85 1029.55 1326.33H966.159ZM1299.23 1475.3V1317.27H1363.51V1590H1301.19V1541.53H1298.34C1292.19 1556.8 1282.07 1569.29 1267.98 1578.99C1254.01 1588.7 1236.79 1593.55 1216.31 1593.55C1198.44 1593.55 1182.64 1589.59 1168.91 1581.65C1155.29 1573.61 1144.64 1561.95 1136.95 1546.68C1129.25 1531.29 1125.4 1512.7 1125.4 1490.92V1317.27H1189.68V1480.98C1189.68 1498.26 1194.41 1511.99 1203.88 1522.17C1213.35 1532.35 1225.78 1537.44 1241.17 1537.44C1250.64 1537.44 1259.81 1535.13 1268.69 1530.52C1277.57 1525.9 1284.85 1519.04 1290.53 1509.92C1296.33 1500.69 1299.23 1489.15 1299.23 1475.3ZM1464.6 1692.27V1317.27H1527.81V1362.37H1531.54C1534.86 1355.74 1539.53 1348.7 1545.57 1341.24C1551.61 1333.67 1559.77 1327.22 1570.07 1321.89C1580.37 1316.44 1593.51 1313.72 1609.49 1313.72C1630.56 1313.72 1649.56 1319.11 1666.49 1329.88C1683.53 1340.53 1697.03 1356.34 1706.97 1377.29C1717.03 1398.12 1722.06 1423.69 1722.06 1453.99C1722.06 1483.94 1717.15 1509.39 1707.32 1530.34C1697.5 1551.29 1684.12 1567.27 1667.2 1578.28C1650.27 1589.29 1631.09 1594.79 1609.67 1594.79C1594.04 1594.79 1581.08 1592.19 1570.78 1586.98C1560.48 1581.77 1552.2 1575.5 1545.92 1568.16C1539.77 1560.7 1534.97 1553.66 1531.54 1547.03H1528.88V1692.27H1464.6ZM1527.64 1453.64C1527.64 1471.27 1530.12 1486.72 1535.09 1499.98C1540.18 1513.24 1547.46 1523.59 1556.93 1531.05C1566.52 1538.39 1578.12 1542.06 1591.73 1542.06C1605.94 1542.06 1617.83 1538.27 1627.42 1530.7C1637.01 1523 1644.23 1512.53 1649.08 1499.27C1654.06 1485.89 1656.54 1470.68 1656.54 1453.64C1656.54 1436.71 1654.12 1421.68 1649.26 1408.54C1644.41 1395.4 1637.19 1385.1 1627.6 1377.64C1618.01 1370.18 1606.06 1366.46 1591.73 1366.46C1578 1366.46 1566.34 1370.07 1556.76 1377.29C1547.17 1384.51 1539.89 1394.63 1534.92 1407.65C1530.06 1420.67 1527.64 1436 1527.64 1453.64ZM1812.1 1692.27V1317.27H1875.31V1362.37H1879.04C1882.36 1355.74 1887.03 1348.7 1893.07 1341.24C1899.11 1333.67 1907.27 1327.22 1917.57 1321.89C1927.87 1316.44 1941.01 1313.72 1956.99 1313.72C1978.06 1313.72 1997.06 1319.11 2013.99 1329.88C2031.03 1340.53 2044.53 1356.34 2054.47 1377.29C2064.53 1398.12 2069.56 1423.69 2069.56 1453.99C2069.56 1483.94 2064.65 1509.39 2054.82 1530.34C2045 1551.29 2031.62 1567.27 2014.7 1578.28C1997.77 1589.29 1978.59 1594.79 1957.17 1594.79C1941.54 1594.79 1928.58 1592.19 1918.28 1586.98C1907.98 1581.77 1899.7 1575.5 1893.42 1568.16C1887.27 1560.7 1882.47 1553.66 1879.04 1547.03H1876.38V1692.27H1812.1ZM1875.14 1453.64C1875.14 1471.27 1877.62 1486.72 1882.59 1499.98C1887.68 1513.24 1894.96 1523.59 1904.43 1531.05C1914.02 1538.39 1925.62 1542.06 1939.23 1542.06C1953.44 1542.06 1965.33 1538.27 1974.92 1530.7C1984.51 1523 1991.73 1512.53 1996.58 1499.27C2001.56 1485.89 2004.04 1470.68 2004.04 1453.64C2004.04 1436.71 2001.62 1421.68 1996.76 1408.54C1991.91 1395.4 1984.69 1385.1 1975.1 1377.64C1965.51 1370.18 1953.56 1366.46 1939.23 1366.46C1925.5 1366.46 1913.84 1370.07 1904.26 1377.29C1894.67 1384.51 1887.39 1394.63 1882.42 1407.65C1877.56 1420.67 1875.14 1436 1875.14 1453.64ZM2223.88 1226.36V1590H2159.6V1226.36H2223.88ZM2364.92 1692.27C2356.17 1692.27 2348.06 1691.56 2340.6 1690.14C2333.26 1688.84 2327.4 1687.3 2323.02 1685.53L2337.94 1635.45C2347.29 1638.18 2355.63 1639.48 2362.97 1639.36C2370.31 1639.24 2376.76 1636.93 2382.33 1632.44C2388.01 1628.06 2392.8 1620.72 2396.71 1610.42L2402.21 1595.68L2303.31 1317.27H2371.49L2434.35 1523.24H2437.19L2500.22 1317.27H2568.58L2459.38 1623.03C2454.29 1637.47 2447.55 1649.84 2439.14 1660.13C2430.74 1670.55 2420.44 1678.48 2408.25 1683.93C2396.17 1689.49 2381.73 1692.27 2364.92 1692.27Z" fill="black"></path>
<defs>
<filter id="filter0_d_55_42" x="1061.8" y="19.3457" width="744.116" height="1013.74" filterUnits="userSpaceOnUse" color-interpolation-filters="sRGB">
<feFlood flood-opacity="0" result="BackgroundImageFix"></feFlood>
<feColorMatrix in="SourceAlpha" type="matrix" values="0 0 0 0 0 0 0 0 0 0 0 0 0 0 0 0 0 0 127 0" result="hardAlpha"></feColorMatrix>
<feOffset dy="4"></feOffset>
<feGaussianBlur stdDeviation="2"></feGaussianBlur>
<feComposite in2="hardAlpha" operator="out"></feComposite>
<feColorMatrix type="matrix" values="0 0 0 0 0 0 0 0 0 0 0 0 0 0 0 0 0 0 0.25 0"></feColorMatrix>
<feBlend mode="normal" in2="BackgroundImageFix" result="effect1_dropShadow_55_42"></feBlend>
<feBlend mode="normal" in="SourceGraphic" in2="effect1_dropShadow_55_42" result="shape"></feBlend>
</filter>
<filter id="filter1_d_55_42" x="726.871" y="18.3052" width="687.888" height="1015.44" filterUnits="userSpaceOnUse" color-interpolation-filters="sRGB">
<feFlood flood-opacity="0" result="BackgroundImageFix"></feFlood>
<feColorMatrix in="SourceAlpha" type="matrix" values="0 0 0 0 0 0 0 0 0 0 0 0 0 0 0 0 0 0 127 0" result="hardAlpha"></feColorMatrix>
<feOffset dy="4"></feOffset>
<feGaussianBlur stdDeviation="2"></feGaussianBlur>
<feComposite in2="hardAlpha" operator="out"></feComposite>
<feColorMatrix type="matrix" values="0 0 0 0 0 0 0 0 0 0 0 0 0 0 0 0 0 0 0.25 0"></feColorMatrix>
<feBlend mode="normal" in2="BackgroundImageFix" result="effect1_dropShadow_55_42"></feBlend>
<feBlend mode="normal" in="SourceGraphic" in2="effect1_dropShadow_55_42" result="shape"></feBlend>
</filter>
<filter id="filter2_d_55_42" x="1608.16" y="0" width="987.878" height="1051" filterUnits="userSpaceOnUse" color-interpolation-filters="sRGB">
<feFlood flood-opacity="0" result="BackgroundImageFix"></feFlood>
<feColorMatrix in="SourceAlpha" type="matrix" values="0 0 0 0 0 0 0 0 0 0 0 0 0 0 0 0 0 0 127 0" result="hardAlpha"></feColorMatrix>
<feOffset dy="4"></feOffset>
<feGaussianBlur stdDeviation="2"></feGaussianBlur>
<feComposite in2="hardAlpha" operator="out"></feComposite>
<feColorMatrix type="matrix" values="0 0 0 0 0 0 0 0 0 0 0 0 0 0 0 0 0 0 0.25 0"></feColorMatrix>
<feBlend mode="normal" in2="BackgroundImageFix" result="effect1_dropShadow_55_42"></feBlend>
<feBlend mode="normal" in="SourceGraphic" in2="effect1_dropShadow_55_42" result="shape"></feBlend>
</filter>
<filter id="filter3_d_55_42" x="0.370605" y="16.5708" width="909.602" height="1013.6" filterUnits="userSpaceOnUse" color-interpolation-filters="sRGB">
<feFlood flood-opacity="0" result="BackgroundImageFix"></feFlood>
<feColorMatrix in="SourceAlpha" type="matrix" values="0 0 0 0 0 0 0 0 0 0 0 0 0 0 0 0 0 0 127 0" result="hardAlpha"></feColorMatrix>
<feOffset dy="4"></feOffset>
<feGaussianBlur stdDeviation="2"></feGaussianBlur>
<feComposite in2="hardAlpha" operator="out"></feComposite>
<feColorMatrix type="matrix" values="0 0 0 0 0 0 0 0 0 0 0 0 0 0 0 0 0 0 0.25 0"></feColorMatrix>
<feBlend mode="normal" in2="BackgroundImageFix" result="effect1_dropShadow_55_42"></feBlend>
<feBlend mode="normal" in="SourceGraphic" in2="effect1_dropShadow_55_42" result="shape"></feBlend>
</filter>
<filter id="filter4_d_55_42" x="0" y="1157.72" width="420.667" height="521.821" filterUnits="userSpaceOnUse" color-interpolation-filters="sRGB">
<feFlood flood-opacity="0" result="BackgroundImageFix"></feFlood>
<feColorMatrix in="SourceAlpha" type="matrix" values="0 0 0 0 0 0 0 0 0 0 0 0 0 0 0 0 0 0 127 0" result="hardAlpha"></feColorMatrix>
<feOffset dy="4"></feOffset>
<feGaussianBlur stdDeviation="2"></feGaussianBlur>
<feComposite in2="hardAlpha" operator="out"></feComposite>
<feColorMatrix type="matrix" values="0 0 0 0 0 0 0 0 0 0 0 0 0 0 0 0 0 0 0.25 0"></feColorMatrix>
<feBlend mode="normal" in2="BackgroundImageFix" result="effect1_dropShadow_55_42"></feBlend>
<feBlend mode="normal" in="SourceGraphic" in2="effect1_dropShadow_55_42" result="shape"></feBlend>
</filter>
<filter id="filter5_d_55_42" x="163.562" y="1188.64" width="422.617" height="523.146" filterUnits="userSpaceOnUse" color-interpolation-filters="sRGB">
<feFlood flood-opacity="0" result="BackgroundImageFix"></feFlood>
<feColorMatrix in="SourceAlpha" type="matrix" values="0 0 0 0 0 0 0 0 0 0 0 0 0 0 0 0 0 0 127 0" result="hardAlpha"></feColorMatrix>
<feOffset dy="4"></feOffset>
<feGaussianBlur stdDeviation="2"></feGaussianBlur>
<feComposite in2="hardAlpha" operator="out"></feComposite>
<feColorMatrix type="matrix" values="0 0 0 0 0 0 0 0 0 0 0 0 0 0 0 0 0 0 0.25 0"></feColorMatrix>
<feBlend mode="normal" in2="BackgroundImageFix" result="effect1_dropShadow_55_42"></feBlend>
<feBlend mode="normal" in="SourceGraphic" in2="effect1_dropShadow_55_42" result="shape"></feBlend>
</filter>
</defs>
</svg>